<?xml version="1.0" encoding="us-ascii" standalone="no"?><svg xmlns="http://www.w3.org/2000/svg" xmlns:xlink="http://www.w3.org/1999/xlink" contentStyleType="text/css" height="469px" preserveAspectRatio="none" style="width:197px;height:469px;background:#FFFFFF;" version="1.1" viewBox="0 0 197 469" width="197px" zoomAndPan="magnify"><defs/><g><!--class IStandardizedYield--><g id="elem_IStandardizedYield"><rect codeLine="11" fill="#F1F1F1" height="347.3594" id="IStandardizedYield" rx="2.5" ry="2.5" style="stroke:#181818;stroke-width:0.5;" width="183" x="7" y="7"/><ellipse cx="36.4" cy="23" fill="#B4A7E5" rx="11" ry="11" style="stroke:#181818;stroke-width:1.0;"/><path d="M37.3531,19.6406 L37.3531,26.2969 L39.0719,26.2969 Q39.6813,26.2969 39.9469,26.5313 Q40.2125,26.7656 40.2125,27.1563 Q40.2125,27.5313 39.9469,27.7656 Q39.6813,28 39.0719,28 L33.9313,28 Q33.3219,28 33.0563,27.7656 Q32.7906,27.5313 32.7906,27.1406 Q32.7906,26.7656 33.0563,26.5313 Q33.3219,26.2969 33.9313,26.2969 L35.65,26.2969 L35.65,19.6406 L33.9313,19.6406 Q33.3219,19.6406 33.0563,19.4063 Q32.7906,19.1719 32.7906,18.7813 Q32.7906,18.4063 33.0563,18.1719 Q33.3219,17.9375 33.9313,17.9375 L39.0719,17.9375 Q39.6813,17.9375 39.9469,18.1719 Q40.2125,18.4063 40.2125,18.7813 Q40.2125,19.1719 39.9469,19.4063 Q39.6813,19.6406 39.0719,19.6406 L37.3531,19.6406 Z " fill="#000000"/><text fill="#000000" font-family="sans-serif" font-size="14" font-style="italic" lengthAdjust="spacing" textLength="119" x="53.6" y="28.7285">IStandardizedYield</text><line style="stroke:#181818;stroke-width:0.5;" x1="8" x2="189" y1="39" y2="39"/><text fill="#000000" font-family="sans-serif" font-size="14" font-style="italic" lengthAdjust="spacing" textLength="109" x="13" y="57.5332">IERC20Metadata</text><line style="stroke:#181818;stroke-width:0.5;" x1="8" x2="189" y1="64.6094" y2="64.6094"/><ellipse cx="18" cy="78.9141" fill="#84BE84" rx="3" ry="3" style="stroke:#038048;stroke-width:1.0;"/><text fill="#000000" font-family="sans-serif" font-size="14" lengthAdjust="spacing" textLength="70" x="27" y="83.1426">&#128176;deposit()</text><ellipse cx="18" cy="96.5234" fill="#84BE84" rx="3" ry="3" style="stroke:#038048;stroke-width:1.0;"/><text fill="#000000" font-family="sans-serif" font-size="14" lengthAdjust="spacing" textLength="58" x="27" y="100.752">redeem()</text><ellipse cx="18" cy="114.1328" fill="#84BE84" rx="3" ry="3" style="stroke:#038048;stroke-width:1.0;"/><text fill="#000000" font-family="sans-serif" font-size="14" lengthAdjust="spacing" textLength="115" x="27" y="118.3613">&#128269;exchangeRate()</text><ellipse cx="18" cy="131.7422" fill="#84BE84" rx="3" ry="3" style="stroke:#038048;stroke-width:1.0;"/><text fill="#000000" font-family="sans-serif" font-size="14" lengthAdjust="spacing" textLength="97" x="27" y="135.9707">claimRewards()</text><ellipse cx="18" cy="149.3516" fill="#84BE84" rx="3" ry="3" style="stroke:#038048;stroke-width:1.0;"/><text fill="#000000" font-family="sans-serif" font-size="14" lengthAdjust="spacing" textLength="130" x="27" y="153.5801">&#128269;accruedRewards()</text><ellipse cx="18" cy="166.9609" fill="#84BE84" rx="3" ry="3" style="stroke:#038048;stroke-width:1.0;"/><text fill="#000000" font-family="sans-serif" font-size="14" lengthAdjust="spacing" textLength="149" x="27" y="171.1895">rewardIndexesCurrent()</text><ellipse cx="18" cy="184.5703" fill="#84BE84" rx="3" ry="3" style="stroke:#038048;stroke-width:1.0;"/><text fill="#000000" font-family="sans-serif" font-size="14" lengthAdjust="spacing" textLength="157" x="27" y="188.7988">&#128269;rewardIndexesStored()</text><ellipse cx="18" cy="202.1797" fill="#84BE84" rx="3" ry="3" style="stroke:#038048;stroke-width:1.0;"/><text fill="#000000" font-family="sans-serif" font-size="14" lengthAdjust="spacing" textLength="139" x="27" y="206.4082">&#128269;getRewardTokens()</text><ellipse cx="18" cy="219.7891" fill="#84BE84" rx="3" ry="3" style="stroke:#038048;stroke-width:1.0;"/><text fill="#000000" font-family="sans-serif" font-size="14" lengthAdjust="spacing" textLength="93" x="27" y="224.0176">&#128269;yieldToken()</text><ellipse cx="18" cy="237.3984" fill="#84BE84" rx="3" ry="3" style="stroke:#038048;stroke-width:1.0;"/><text fill="#000000" font-family="sans-serif" font-size="14" lengthAdjust="spacing" textLength="102" x="27" y="241.627">&#128269;getTokensIn()</text><ellipse cx="18" cy="255.0078" fill="#84BE84" rx="3" ry="3" style="stroke:#038048;stroke-width:1.0;"/><text fill="#000000" font-family="sans-serif" font-size="14" lengthAdjust="spacing" textLength="114" x="27" y="259.2363">&#128269;getTokensOut()</text><ellipse cx="18" cy="272.6172" fill="#84BE84" rx="3" ry="3" style="stroke:#038048;stroke-width:1.0;"/><text fill="#000000" font-family="sans-serif" font-size="14" lengthAdjust="spacing" textLength="116" x="27" y="276.8457">&#128269;isValidTokenIn()</text><ellipse cx="18" cy="290.2266" fill="#84BE84" rx="3" ry="3" style="stroke:#038048;stroke-width:1.0;"/><text fill="#000000" font-family="sans-serif" font-size="14" lengthAdjust="spacing" textLength="128" x="27" y="294.4551">&#128269;isValidTokenOut()</text><ellipse cx="18" cy="307.8359" fill="#84BE84" rx="3" ry="3" style="stroke:#038048;stroke-width:1.0;"/><text fill="#000000" font-family="sans-serif" font-size="14" lengthAdjust="spacing" textLength="120" x="27" y="312.0645">&#128269;previewDeposit()</text><ellipse cx="18" cy="325.4453" fill="#84BE84" rx="3" ry="3" style="stroke:#038048;stroke-width:1.0;"/><text fill="#000000" font-family="sans-serif" font-size="14" lengthAdjust="spacing" textLength="125" x="27" y="329.6738">&#128269;previewRedeem()</text><ellipse cx="18" cy="343.0547" fill="#84BE84" rx="3" ry="3" style="stroke:#038048;stroke-width:1.0;"/><text fill="#000000" font-family="sans-serif" font-size="14" lengthAdjust="spacing" textLength="81" x="27" y="347.2832">&#128269;assetInfo()</text></g><!--class IERC20Metadata--><g id="elem_IERC20Metadata"><rect fill="#F1F1F1" height="48" id="IERC20Metadata" rx="2.5" ry="2.5" style="stroke:#181818;stroke-width:0.5;" width="139" x="29" y="414"/><ellipse cx="44" cy="430" fill="#ADD1B2" rx="11" ry="11" style="stroke:#181818;stroke-width:1.0;"/><path d="M46.7656,425.875 Q46.9219,425.6563 47.1094,425.5469 Q47.2969,425.4375 47.5156,425.4375 Q47.8906,425.4375 48.125,425.7031 Q48.3594,425.9531 48.3594,426.5625 L48.3594,428.0156 Q48.3594,428.625 48.125,428.8906 Q47.8906,429.1563 47.5156,429.1563 Q47.1719,429.1563 46.9688,428.9531 Q46.7656,428.7656 46.6563,428.25 Q46.6094,427.8906 46.4219,427.7031 Q46.0938,427.3281 45.4844,427.1094 Q44.875,426.8906 44.25,426.8906 Q43.4844,426.8906 42.8438,427.2188 Q42.2188,427.5469 41.7188,428.2969 Q41.2344,429.0469 41.2344,430.0781 L41.2344,431.1719 Q41.2344,432.4063 42.125,433.2344 Q43.0156,434.0469 44.6094,434.0469 Q45.5469,434.0469 46.2031,433.7969 Q46.5938,433.6406 47.0156,433.2031 Q47.2813,432.9375 47.4219,432.8594 Q47.5781,432.7813 47.7813,432.7813 Q48.1094,432.7813 48.3594,433.0469 Q48.625,433.2969 48.625,433.6406 Q48.625,433.9844 48.2813,434.3906 Q47.7813,434.9688 46.9844,435.2969 Q45.9063,435.75 44.6094,435.75 Q43.0938,435.75 41.8906,435.125 Q40.9063,434.625 40.2188,433.5625 Q39.5313,432.4844 39.5313,431.2031 L39.5313,430.0469 Q39.5313,428.7188 40.1406,427.5781 Q40.7656,426.4219 41.8594,425.8125 Q42.9531,425.1875 44.1875,425.1875 Q44.9219,425.1875 45.5625,425.3594 Q46.2188,425.5156 46.7656,425.875 Z " fill="#000000"/><text fill="#000000" font-family="sans-serif" font-size="14" lengthAdjust="spacing" textLength="107" x="58" y="435.7285">IERC20Metadata</text><line style="stroke:#181818;stroke-width:0.5;" x1="30" x2="167" y1="446" y2="446"/><line style="stroke:#181818;stroke-width:0.5;" x1="30" x2="167" y1="454" y2="454"/></g><!--link IStandardizedYield to IERC20Metadata--><g id="link_IStandardizedYield_IERC20Metadata"><path codeLine="39" d="M98.5,354.05 C98.5,377.53 98.5,380.7 98.5,395.78 " fill="none" id="IStandardizedYield-to-IERC20Metadata" style="stroke:#B8860B;stroke-width:1.0;"/><polygon fill="none" points="98.5,413.78,104.5,395.78,92.5,395.78,98.5,413.78" style="stroke:#B8860B;stroke-width:1.0;"/></g><!--SRC=[dPBFJkCm4CRFv2aiSIXebHPnH6Btm3_b04XXjT9gnM4IJzi1nuuyavR2yWXxMUsTL-3HU8ITfAXDWHDM58r__iPZp-U1ILCpGOyH1Aqf5WTcAbBpmMXKGRn5gHsKE9mHD-1O6ajXM8PgH88LVsl_5r3XeP3NRux5a8CZIx98boafQ8g4c0oIGLjg7AA1Ha8QqLkCXZmBEFUvgZTO53nKhPUcSii2eHOAdZLCT7IeTC2ChqWFYd6ikvliIi1RY9RkqVuaTDOy94P7bqH-Yf5KeKfDt7g0WYL2AO_PINwqltUE0XO4adLAm-Gdfth1jj2ApY3o9gbGfi5sSElBozFVPujrO9ATNPr7j8XL5xuy_Vk3T-KK_0HpjQU3UXcgSfphkNcbWhAC3Te-ZbsSQPFla8-QgFsMbNvZyKhjGRjQcw0iz_aURj6lQopQ3dMiBrsAiW_OPREkH_m3z5bq2prj7_VbTSGPuVourvOUpZSxr7ehcHy79SbZyiwyqOOl7vYUfh-sZ_NLdGLdqUV1Nl_-QjwO_1y0]--></g></svg>